<svg width="1920" height="1080" viewBox="0 0 1920 1080" xmlns="http://www.w3.org/2000/svg"><rect width="1920" height="1080" fill="#2c5e68"/><path d="M 0,1080 C 0,1080 0,180 0,180 C 78.67435897435897,156.3025641025641 157.34871794871793,132.6051282051282 275,134 C 392.65128205128207,135.3948717948718 549.2794871794872,161.88205128205126 665,163 C 780.7205128205128,164.11794871794874 855.5333333333333,139.86666666666665 946,148 C 1036.4666666666667,156.13333333333335 1142.5871794871794,196.65128205128207 1264,202 C 1385.4128205128206,207.34871794871793 1522.1179487179488,177.52820512820512 1634,168 C 1745.8820512820512,158.47179487179488 1832.9410256410256,169.23589743589744 1920,180 C 1920,180 1920,1080 1920,1080 Z" fill="#bcdde1" opacity="0.09999999999999999"/><path d="M 0,1080 C 0,1080 0,360 0,360 C 92.61025641025643,357.49743589743593 185.22051282051285,354.9948717948718 290,346 C 394.77948717948715,337.0051282051282 511.7282051282051,321.5179487179487 615,319 C 718.2717948717949,316.4820512820513 807.8666666666666,326.93333333333334 931,352 C 1054.1333333333334,377.06666666666666 1210.805128205128,416.748717948718 1310,408 C 1409.194871794872,399.251282051282 1450.9128205128206,342.07179487179485 1543,326 C 1635.0871794871794,309.92820512820515 1777.5435897435896,334.9641025641026 1920,360 C 1920,360 1920,1080 1920,1080 Z" fill="#bcdde1" opacity="0.19999999999999998"/><path d="M 0,1080 C 0,1080 0,540 0,540 C 137.75384615384615,503.4205128205128 275.5076923076923,466.84102564102557 362,490 C 448.4923076923077,513.1589743589744 483.72307692307675,596.0564102564102 593,601 C 702.2769230769233,605.9435897435898 885.6000000000001,532.9333333333332 1000,502 C 1114.3999999999999,471.0666666666668 1159.8769230769233,482.21025641025653 1247,500 C 1334.1230769230767,517.7897435897435 1462.8923076923077,542.225641025641 1582,550 C 1701.1076923076923,557.774358974359 1810.5538461538463,548.8871794871795 1920,540 C 1920,540 1920,1080 1920,1080 Z" fill="#bcdde1" opacity="0.3"/><path d="M 0,1080 C 0,1080 0,720 0,720 C 87.45128205128205,703.3410256410257 174.9025641025641,686.6820512820512 305,701 C 435.0974358974359,715.3179487179488 607.8410256410257,760.6128205128205 699,763 C 790.1589743589743,765.3871794871795 799.7333333333332,724.8666666666667 908,708 C 1016.2666666666668,691.1333333333333 1223.2256410256412,697.920512820513 1337,698 C 1450.7743589743588,698.079487179487 1471.3641025641025,691.451282051282 1553,694 C 1634.6358974358975,696.548717948718 1777.3179487179486,708.2743589743591 1920,720 C 1920,720 1920,1080 1920,1080 Z" fill="#bcdde1" opacity="0.39999999999999997"/><path d="M 0,1080 C 0,1080 0,900 0,900 C 97.71025641025639,878.1948717948718 195.42051282051278,856.3897435897436 308,857 C 420.5794871794872,857.6102564102564 548.0282051282051,880.6358974358974 642,898 C 735.9717948717949,915.3641025641026 796.4666666666666,927.0666666666667 906,914 C 1015.5333333333334,900.9333333333333 1174.1051282051283,863.0974358974357 1292,860 C 1409.8948717948717,856.9025641025643 1487.1128205128207,888.5435897435898 1585,901 C 1682.8871794871793,913.4564102564102 1801.4435897435897,906.7282051282051 1920,900 C 1920,900 1920,1080 1920,1080 Z" fill="#bcdde1" opacity="0.49999999999999994"/></svg>